<svg width="22" height="22" viewBox="0 0 22 22" fill="none" xmlns="http://www.w3.org/2000/svg">
<path d="M21.7083 17.7081L17.7083 21.7081C17.5206 21.8957 17.2661 22.0011 17.0008 22.0011C16.7354 22.0011 16.4809 21.8957 16.2933 21.7081C16.1056 21.5204 16.0002 21.2659 16.0002 21.0006C16.0002 20.7352 16.1056 20.4807 16.2933 20.2931L18.587 18.0006H1.00079C0.73557 18.0006 0.481217 17.8952 0.29368 17.7077C0.106144 17.5201 0.000786781 17.2658 0.000786781 17.0006C0.000786781 16.7353 0.106144 16.481 0.29368 16.2934C0.481217 16.1059 0.73557 16.0006 1.00079 16.0006H18.587L16.2933 13.7081C16.1056 13.5204 16.0002 13.2659 16.0002 13.0006C16.0002 12.7352 16.1056 12.4807 16.2933 12.2931C16.4809 12.1054 16.7354 12 17.0008 12C17.2661 12 17.5206 12.1054 17.7083 12.2931L21.7083 16.2931C21.8013 16.3859 21.875 16.4962 21.9253 16.6176C21.9757 16.739 22.0016 16.8691 22.0016 17.0006C22.0016 17.132 21.9757 17.2621 21.9253 17.3835C21.875 17.5049 21.8013 17.6152 21.7083 17.7081ZM4.29329 9.70806C4.48093 9.8957 4.73542 10.0011 5.00079 10.0011C5.26615 10.0011 5.52065 9.8957 5.70829 9.70806C5.89593 9.52042 6.00134 9.26592 6.00134 9.00056C6.00134 8.73519 5.89593 8.4807 5.70829 8.29306L3.41454 6.00056H21.0008C21.266 6.00056 21.5204 5.8952 21.7079 5.70766C21.8954 5.52013 22.0008 5.26577 22.0008 5.00056C22.0008 4.73534 21.8954 4.48099 21.7079 4.29345C21.5204 4.10591 21.266 4.00056 21.0008 4.00056H3.41454L5.70829 1.70806C5.89593 1.52042 6.00134 1.26592 6.00134 1.00056C6.00134 0.735192 5.89593 0.480697 5.70829 0.293056C5.52065 0.105415 5.26615 3.95423e-09 5.00079 0C4.73542 -3.95423e-09 4.48093 0.105415 4.29329 0.293056L0.293287 4.29306C0.20031 4.38593 0.126551 4.49622 0.0762272 4.61762C0.0259029 4.73901 0 4.86914 0 5.00056C0 5.13197 0.0259029 5.2621 0.0762272 5.3835C0.126551 5.50489 0.20031 5.61518 0.293287 5.70806L4.29329 9.70806Z" fill="white"/>
</svg>
