<svg width="169" height="21" viewBox="0 0 169 21" fill="none" xmlns="http://www.w3.org/2000/svg">
<g id="Group 135">
<path id="Vector" d="M90.5192 12.2002L87.2881 10.5848C87.1609 10.5214 87.0192 10.4927 86.8774 10.5016C86.7356 10.5105 86.5986 10.5566 86.4803 10.6353L84.997 11.6247C84.3162 11.2504 83.7558 10.6902 83.3815 10.0093L84.371 8.5262C84.4497 8.40791 84.4959 8.27095 84.5047 8.12913C84.5136 7.98732 84.4849 7.84568 84.4215 7.71851L82.806 4.48774C82.739 4.35252 82.6355 4.23877 82.5072 4.15936C82.3789 4.07995 82.2309 4.03807 82.08 4.03846C81.0088 4.03846 79.9815 4.46394 79.2241 5.2213C78.4667 5.97866 78.0411 7.00586 78.0411 8.07692C78.0438 10.4324 78.9808 12.6907 80.6466 14.3563C82.3124 16.022 84.5709 16.9589 86.9266 16.9615C87.457 16.9615 87.9822 16.8571 88.4722 16.6541C88.9622 16.4512 89.4075 16.1537 89.7825 15.7787C90.1575 15.4037 90.455 14.9585 90.658 14.4685C90.861 13.9786 90.9655 13.4534 90.9655 12.9231C90.9656 12.773 90.9239 12.6259 90.845 12.4982C90.7662 12.3705 90.6534 12.2673 90.5192 12.2002ZM86.9266 15.3462C84.9992 15.344 83.1513 14.5775 81.7884 13.2147C80.4254 11.8519 79.6588 10.0042 79.6567 8.07692C79.6565 7.51671 79.8505 6.97374 80.2056 6.54043C80.5607 6.10712 81.055 5.81023 81.6044 5.70029L82.7636 8.0224L81.7771 9.49038C81.7034 9.60095 81.6581 9.728 81.6452 9.86026C81.6323 9.99252 81.6523 10.1259 81.7034 10.2486C82.2813 11.6221 83.3741 12.7147 84.7477 13.2926C84.8707 13.3459 85.0051 13.3677 85.1388 13.3561C85.2724 13.3445 85.401 13.2997 85.513 13.226L86.9882 12.2426L89.3105 13.4016C89.1997 13.9516 88.9015 14.4461 88.4668 14.8007C88.032 15.1553 87.4877 15.3481 86.9266 15.3462ZM84.5033 2.50057e-07C82.6903 -0.000395326 80.9081 0.468551 79.3302 1.36119C77.7523 2.25384 76.4323 3.53976 75.4989 5.09381C74.5654 6.64786 74.0502 8.41709 74.0035 10.2293C73.9567 12.0415 74.38 13.8349 75.2321 15.435L74.0861 18.8727C73.9912 19.1574 73.9774 19.4628 74.0463 19.7548C74.1152 20.0468 74.2641 20.3139 74.4763 20.526C74.6885 20.7382 74.9556 20.8871 75.2476 20.956C75.5396 21.0249 75.8451 21.0111 76.1298 20.9162L79.5678 19.7703C80.9761 20.5193 82.5366 20.9376 84.1307 20.9935C85.7249 21.0495 87.3108 20.7415 88.7682 20.0931C90.2255 19.4447 91.516 18.4728 92.5416 17.2512C93.5672 16.0296 94.3011 14.5904 94.6874 13.0429C95.0737 11.4955 95.1024 9.8803 94.7712 8.32008C94.44 6.75985 93.7577 5.29557 92.7761 4.03838C91.7945 2.78118 90.5393 1.76412 89.1059 1.06439C87.6724 0.364662 86.0984 0.000654463 84.5033 2.50057e-07ZM84.5033 19.3846C82.9413 19.3857 81.4066 18.9744 80.0545 18.1923C79.9555 18.1349 79.8454 18.0991 79.7316 18.0875C79.6178 18.0758 79.5027 18.0885 79.3942 18.1246L75.6178 19.3846L76.8769 15.6087C76.9132 15.5002 76.9261 15.3852 76.9146 15.2713C76.9031 15.1575 76.8675 15.0474 76.8103 14.9484C75.8309 13.2552 75.4376 11.2861 75.6916 9.34658C75.9455 7.40708 76.8325 5.6056 78.2149 4.2216C79.5973 2.83759 81.3978 1.94843 83.3372 1.69204C85.2765 1.43565 87.2463 1.82637 88.9409 2.80359C90.6355 3.7808 91.9603 5.28989 92.7096 7.09674C93.4589 8.90359 93.591 10.9072 93.0853 12.7968C92.5796 14.6863 91.4644 16.3562 89.9127 17.5473C88.361 18.7385 86.4595 19.3843 84.5033 19.3846Z" fill="white"/>
<path id="Vector_2" d="M120.5 0C118.423 0 116.393 0.615814 114.667 1.76957C112.94 2.92332 111.594 4.5632 110.799 6.48182C110.005 8.40045 109.797 10.5116 110.202 12.5484C110.607 14.5852 111.607 16.4562 113.075 17.9246C114.544 19.3931 116.415 20.3931 118.452 20.7982C120.488 21.2034 122.6 20.9954 124.518 20.2007C126.437 19.406 128.077 18.0602 129.23 16.3335C130.384 14.6068 131 12.5767 131 10.5C130.997 7.71613 129.89 5.04712 127.921 3.07862C125.953 1.11013 123.284 0.00293982 120.5 0ZM121.308 19.3473V12.9231H123.731C123.945 12.9231 124.15 12.838 124.302 12.6865C124.453 12.535 124.538 12.3296 124.538 12.1154C124.538 11.9012 124.453 11.6957 124.302 11.5443C124.15 11.3928 123.945 11.3077 123.731 11.3077H121.308V8.88461C121.308 8.45619 121.478 8.04531 121.781 7.74236C122.084 7.43942 122.495 7.26923 122.923 7.26923H124.538C124.753 7.26923 124.958 7.18413 125.11 7.03266C125.261 6.88119 125.346 6.67575 125.346 6.46154C125.346 6.24732 125.261 6.04188 125.11 5.89041C124.958 5.73894 124.753 5.65384 124.538 5.65384H122.923C122.066 5.65384 121.244 5.99423 120.639 6.60011C120.033 7.206 119.692 8.02776 119.692 8.88461V11.3077H117.269C117.055 11.3077 116.85 11.3928 116.698 11.5443C116.547 11.6957 116.462 11.9012 116.462 12.1154C116.462 12.3296 116.547 12.535 116.698 12.6865C116.85 12.838 117.055 12.9231 117.269 12.9231H119.692V19.3473C117.415 19.1394 115.306 18.0618 113.804 16.3386C112.301 14.6153 111.521 12.3792 111.625 10.0952C111.729 7.81118 112.709 5.65521 114.362 4.07572C116.015 2.49623 118.214 1.61482 120.5 1.61482C122.786 1.61482 124.985 2.49623 126.638 4.07572C128.291 5.65521 129.271 7.81118 129.375 10.0952C129.479 12.3792 128.699 14.6153 127.196 16.3386C125.694 18.0618 123.585 19.1394 121.308 19.3473Z" fill="white"/>
<path id="Vector_3" d="M48.5 5.65385C47.5415 5.65385 46.6046 5.93807 45.8076 6.47057C45.0107 7.00307 44.3895 7.75994 44.0227 8.64546C43.6559 9.53098 43.56 10.5054 43.747 11.4454C43.934 12.3855 44.3955 13.249 45.0733 13.9267C45.751 14.6045 46.6145 15.066 47.5546 15.253C48.4946 15.44 49.469 15.3441 50.3545 14.9773C51.2401 14.6105 51.9969 13.9893 52.5294 13.1924C53.0619 12.3954 53.3462 11.4585 53.3462 10.5C53.3448 9.21513 52.8338 7.98327 51.9253 7.07473C51.0167 6.16619 49.7849 5.65518 48.5 5.65385ZM48.5 13.7308C47.861 13.7308 47.2364 13.5413 46.7051 13.1863C46.1738 12.8313 45.7597 12.3267 45.5152 11.7364C45.2706 11.146 45.2066 10.4964 45.3313 9.86971C45.456 9.243 45.7637 8.66733 46.2155 8.2155C46.6673 7.76367 47.243 7.45597 47.8697 7.33131C48.4964 7.20665 49.146 7.27063 49.7364 7.51516C50.3267 7.75969 50.8313 8.17378 51.1863 8.70508C51.5413 9.23638 51.7308 9.86101 51.7308 10.5C51.7308 11.3569 51.3904 12.1786 50.7845 12.7845C50.1786 13.3904 49.3569 13.7308 48.5 13.7308ZM53.3462 0H43.6538C42.1548 0.0016035 40.7177 0.59779 39.6577 1.65774C38.5978 2.7177 38.0016 4.15484 38 5.65385V15.3462C38.0016 16.8452 38.5978 18.2823 39.6577 19.3423C40.7177 20.4022 42.1548 20.9984 43.6538 21H53.3462C54.8452 20.9984 56.2823 20.4022 57.3423 19.3423C58.4022 18.2823 58.9984 16.8452 59 15.3462V5.65385C58.9984 4.15484 58.4022 2.7177 57.3423 1.65774C56.2823 0.59779 54.8452 0.0016035 53.3462 0ZM57.3846 15.3462C57.3846 16.4172 56.9591 17.4444 56.2018 18.2018C55.4444 18.9591 54.4172 19.3846 53.3462 19.3846H43.6538C42.5828 19.3846 41.5556 18.9591 40.7982 18.2018C40.0409 17.4444 39.6154 16.4172 39.6154 15.3462V5.65385C39.6154 4.58278 40.0409 3.55558 40.7982 2.79822C41.5556 2.04086 42.5828 1.61538 43.6538 1.61538H53.3462C54.4172 1.61538 55.4444 2.04086 56.2018 2.79822C56.9591 3.55558 57.3846 4.58278 57.3846 5.65385V15.3462ZM54.9615 5.25C54.9615 5.48962 54.8905 5.72386 54.7574 5.92309C54.6242 6.12233 54.435 6.27762 54.2136 6.36932C53.9923 6.46101 53.7487 6.48501 53.5136 6.43826C53.2786 6.39151 53.0627 6.27612 52.8933 6.10669C52.7239 5.93725 52.6085 5.72137 52.5617 5.48636C52.515 5.25134 52.539 5.00774 52.6307 4.78636C52.7224 4.56498 52.8777 4.37577 53.0769 4.24264C53.2761 4.10952 53.5104 4.03846 53.75 4.03846C54.0713 4.03846 54.3795 4.16611 54.6067 4.39331C54.8339 4.62052 54.9615 4.92868 54.9615 5.25Z" fill="white"/>
<path id="Vector_4" d="M161.242 9.31887L156.313 6.04614C156.189 5.96391 156.045 5.91669 155.897 5.90952C155.748 5.90235 155.601 5.9355 155.469 6.00543C155.338 6.07536 155.229 6.17944 155.152 6.30658C155.076 6.43371 155.036 6.57911 155.036 6.72728V13.2727C155.036 13.4209 155.076 13.5663 155.152 13.6934C155.229 13.8206 155.338 13.9246 155.469 13.9946C155.601 14.0645 155.748 14.0977 155.897 14.0905C156.045 14.0833 156.189 14.0361 156.313 13.9539L161.242 10.6811C161.354 10.6065 161.447 10.5052 161.511 10.3864C161.575 10.2675 161.608 10.1348 161.608 10C161.608 9.86519 161.575 9.73248 161.511 9.61364C161.447 9.49481 161.354 9.39355 161.242 9.31887ZM156.679 11.7438V8.26137L159.305 10L156.679 11.7438ZM168.418 4.01909C168.321 3.64206 168.136 3.29335 167.877 3.00172C167.618 2.71009 167.294 2.4839 166.93 2.34182C163.41 0.987731 157.808 1 157.5 1C157.192 1 151.59 0.987731 148.07 2.34182C147.706 2.4839 147.382 2.71009 147.123 3.00172C146.864 3.29335 146.679 3.64206 146.582 4.01909C146.316 5.03978 146 6.90523 146 10C146 13.0948 146.316 14.9602 146.582 15.9809C146.679 16.3581 146.864 16.707 147.123 16.9989C147.381 17.2907 147.706 17.517 148.07 17.6592C151.442 18.955 156.72 19 157.432 19H157.568C158.28 19 163.561 18.955 166.93 17.6592C167.294 17.517 167.619 17.2907 167.877 16.9989C168.136 16.707 168.321 16.3581 168.418 15.9809C168.684 14.9582 169 13.0948 169 10C169 6.90523 168.684 5.03978 168.418 4.01909ZM166.827 15.5759C166.796 15.7014 166.735 15.8177 166.65 15.9153C166.565 16.0129 166.458 16.089 166.338 16.1374C163.088 17.3872 157.561 17.3647 157.507 17.3647H157.5C157.445 17.3647 151.921 17.3851 148.67 16.1374C148.549 16.089 148.442 16.0129 148.357 15.9153C148.272 15.8177 148.211 15.7014 148.18 15.5759C147.93 14.6422 147.643 12.9219 147.643 10C147.643 7.07807 147.93 5.35784 148.173 4.42921C148.203 4.30298 148.264 4.18586 148.349 4.08751C148.434 3.98916 148.542 3.91242 148.662 3.86364C151.796 2.65784 157.047 2.63637 157.477 2.63637H157.505C157.561 2.63637 163.089 2.61796 166.335 3.86364C166.456 3.91203 166.563 3.98814 166.648 4.08574C166.733 4.18334 166.794 4.29964 166.825 4.42512C167.07 5.35784 167.357 7.07807 167.357 10C167.357 12.9219 167.07 14.6422 166.827 15.5708V15.5759Z" fill="white"/>
<path id="Vector_5" d="M22.6801 0.229759C22.5529 0.117375 22.398 0.0426318 22.2323 0.0135825C22.0666 -0.0154667 21.8962 0.00227904 21.7396 0.0649078L0.930922 8.39253C0.636015 8.5098 0.386343 8.72187 0.219492 8.9968C0.0526413 9.27174 -0.0223565 9.59466 0.00578932 9.91695C0.0339351 10.2392 0.163701 10.5435 0.375551 10.7838C0.587401 11.0242 0.869869 11.1876 1.18043 11.2496L6.57204 12.3322V18.48C6.57098 18.8148 6.66829 19.1423 6.85137 19.42C7.03444 19.6976 7.29484 19.9126 7.59882 20.0371C7.90233 20.1639 8.2361 20.1943 8.55675 20.1245C8.87739 20.0546 9.17006 19.8877 9.39671 19.6455L11.9965 16.8882L16.1211 20.58C16.4187 20.8499 16.8025 20.9993 17.2002 21C17.3745 20.9999 17.5478 20.9719 17.7136 20.917C17.9846 20.8291 18.2284 20.6701 18.4206 20.4558C18.6128 20.2416 18.7468 19.9796 18.8092 19.6959L22.9769 1.15482C23.0142 0.987603 23.0062 0.813166 22.954 0.650205C22.9017 0.487243 22.807 0.341902 22.6801 0.229759ZM16.4024 4.00979L7.20351 10.7467L2.11069 9.725L16.4024 4.00979ZM8.21489 18.48V13.4945L10.7603 15.7773L8.21489 18.48ZM17.2023 19.32L8.71288 11.7074L20.9315 2.75188L17.2023 19.32Z" fill="white"/>
</g>
</svg>
