<svg width="122" height="34" viewBox="0 0 122 34" fill="none" xmlns="http://www.w3.org/2000/svg">
<path d="M0.78125 33V0.999999H7.54688V27.4219H21.2656V33H0.78125ZM53.9063 17C53.9063 20.4896 53.2448 23.4583 51.9219 25.9062C50.6094 28.3542 48.8177 30.224 46.5469 31.5156C44.2865 32.7969 41.7448 33.4375 38.9219 33.4375C36.0781 33.4375 33.526 32.7917 31.2656 31.5C29.0052 30.2083 27.2188 28.3385 25.9063 25.8906C24.5938 23.4427 23.9375 20.4792 23.9375 17C23.9375 13.5104 24.5938 10.5417 25.9063 8.09375C27.2188 5.64583 29.0052 3.78125 31.2656 2.5C33.526 1.20833 36.0781 0.562499 38.9219 0.562499C41.7448 0.562499 44.2865 1.20833 46.5469 2.5C48.8177 3.78125 50.6094 5.64583 51.9219 8.09375C53.2448 10.5417 53.9063 13.5104 53.9063 17ZM47.0469 17C47.0469 14.7396 46.7083 12.8333 46.0312 11.2812C45.3646 9.72917 44.4219 8.55208 43.2031 7.75C41.9844 6.94792 40.5573 6.54688 38.9219 6.54688C37.2865 6.54688 35.8594 6.94792 34.6406 7.75C33.4219 8.55208 32.474 9.72917 31.7969 11.2812C31.1302 12.8333 30.7969 14.7396 30.7969 17C30.7969 19.2604 31.1302 21.1667 31.7969 22.7187C32.474 24.2708 33.4219 25.4479 34.6406 26.25C35.8594 27.0521 37.2865 27.4531 38.9219 27.4531C40.5573 27.4531 41.9844 27.0521 43.2031 26.25C44.4219 25.4479 45.3646 24.2708 46.0312 22.7187C46.7083 21.1667 47.0469 19.2604 47.0469 17ZM80.1367 11.3438C79.918 10.5833 79.6107 9.91146 79.2148 9.32812C78.819 8.73437 78.3346 8.23438 77.7617 7.82813C77.1992 7.41146 76.5534 7.09375 75.8242 6.875C75.1055 6.65625 74.3086 6.54688 73.4336 6.54688C71.7982 6.54688 70.3607 6.95312 69.1211 7.76562C67.8919 8.57812 66.9336 9.76042 66.2461 11.3125C65.5586 12.8542 65.2148 14.7396 65.2148 16.9687C65.2148 19.1979 65.5534 21.0937 66.2305 22.6562C66.9076 24.2187 67.8659 25.4115 69.1055 26.2344C70.3451 27.0469 71.8086 27.4531 73.4961 27.4531C75.0273 27.4531 76.3346 27.1823 77.418 26.6406C78.5117 26.0885 79.3451 25.3125 79.918 24.3125C80.5013 23.3125 80.793 22.1302 80.793 20.7656L82.168 20.9688H73.918V15.875H87.3086V19.9062C87.3086 22.7187 86.7148 25.1354 85.5273 27.1562C84.3398 29.1667 82.7044 30.7187 80.6211 31.8125C78.5378 32.8958 76.1523 33.4375 73.4648 33.4375C70.4648 33.4375 67.8294 32.776 65.5586 31.4531C63.2878 30.1198 61.5169 28.2292 60.2461 25.7812C58.9857 23.3229 58.3555 20.4062 58.3555 17.0312C58.3555 14.4375 58.7305 12.125 59.4805 10.0937C60.2409 8.05208 61.3034 6.32292 62.668 4.90625C64.0326 3.48958 65.6211 2.41146 67.4336 1.67187C69.2461 0.93229 71.2096 0.562499 73.3242 0.562499C75.1367 0.562499 76.8242 0.828124 78.3867 1.35937C79.9492 1.88021 81.3346 2.61979 82.543 3.57812C83.7617 4.53646 84.7565 5.67708 85.5273 7C86.2982 8.3125 86.793 9.76042 87.0117 11.3438H80.1367ZM121.797 17C121.797 20.4896 121.135 23.4583 119.813 25.9062C118.5 28.3542 116.708 30.224 114.437 31.5156C112.177 32.7969 109.635 33.4375 106.813 33.4375C103.969 33.4375 101.417 32.7917 99.1563 31.5C96.8958 30.2083 95.1094 28.3385 93.7969 25.8906C92.4844 23.4427 91.8281 20.4792 91.8281 17C91.8281 13.5104 92.4844 10.5417 93.7969 8.09375C95.1094 5.64583 96.8958 3.78125 99.1563 2.5C101.417 1.20833 103.969 0.562499 106.813 0.562499C109.635 0.562499 112.177 1.20833 114.437 2.5C116.708 3.78125 118.5 5.64583 119.813 8.09375C121.135 10.5417 121.797 13.5104 121.797 17ZM114.938 17C114.938 14.7396 114.599 12.8333 113.922 11.2812C113.255 9.72917 112.313 8.55208 111.094 7.75C109.875 6.94792 108.448 6.54688 106.813 6.54688C105.177 6.54688 103.75 6.94792 102.531 7.75C101.313 8.55208 100.365 9.72917 99.6875 11.2812C99.0208 12.8333 98.6875 14.7396 98.6875 17C98.6875 19.2604 99.0208 21.1667 99.6875 22.7187C100.365 24.2708 101.313 25.4479 102.531 26.25C103.75 27.0521 105.177 27.4531 106.813 27.4531C108.448 27.4531 109.875 27.0521 111.094 26.25C112.313 25.4479 113.255 24.2708 113.922 22.7187C114.599 21.1667 114.938 19.2604 114.938 17Z" fill="white"/>
</svg>
