<svg width="241" height="220" viewBox="0 0 241 220" fill="none" xmlns="http://www.w3.org/2000/svg">
<path d="M239.987 56.9469H125.604C124.206 56.9469 123.073 55.5073 123.073 53.7316V4.21534C123.073 2.43956 121.939 1 120.541 1H1.01261M224.292 69.8083H117.588C116.189 69.8083 115.056 68.3687 115.056 66.5929V35.0826C115.056 33.3068 113.923 31.8673 112.525 31.8673H1.01261M212.141 82.6696H110.886C109.488 82.6696 108.354 81.2301 108.354 79.4543V65.9499C108.354 64.1741 107.221 62.7345 105.823 62.7345H1.54511e-05M198.977 105.82H104.162C102.764 105.82 101.631 104.381 101.631 102.605V98.7463C101.631 96.9705 100.497 95.531 99.099 95.531H0M241 163.053H126.617C125.219 163.053 124.085 164.493 124.085 166.268V215.785C124.085 217.56 122.952 219 121.554 219H2.02521M225.305 150.192H118.6C117.202 150.192 116.069 151.631 116.069 153.407V184.917C116.069 186.693 114.935 188.133 113.537 188.133H2.02521M213.153 137.33H111.898C110.5 137.33 109.367 138.77 109.367 140.546V154.05C109.367 155.826 108.233 157.265 106.835 157.265H1.01262M199.99 114.18H105.175C103.777 114.18 102.643 115.619 102.643 117.395V121.254C102.643 123.029 101.51 124.469 100.112 124.469H1.01261" stroke="white" stroke-dasharray="5 5"/>
</svg>
