<svg width="26" height="22" viewBox="0 0 26 22" fill="none" xmlns="http://www.w3.org/2000/svg">
<path d="M22 9C22 9.26522 21.8946 9.51957 21.7071 9.70711C21.5196 9.89464 21.2652 10 21 10H16C15.7348 10 15.4804 9.89464 15.2929 9.70711C15.1054 9.51957 15 9.26522 15 9C15 8.73478 15.1054 8.48043 15.2929 8.29289C15.4804 8.10536 15.7348 8 16 8H21C21.2652 8 21.5196 8.10536 21.7071 8.29289C21.8946 8.48043 22 8.73478 22 9ZM21 12H16C15.7348 12 15.4804 12.1054 15.2929 12.2929C15.1054 12.4804 15 12.7348 15 13C15 13.2652 15.1054 13.5196 15.2929 13.7071C15.4804 13.8946 15.7348 14 16 14H21C21.2652 14 21.5196 13.8946 21.7071 13.7071C21.8946 13.5196 22 13.2652 22 13C22 12.7348 21.8946 12.4804 21.7071 12.2929C21.5196 12.1054 21.2652 12 21 12ZM26 2V20C26 20.5304 25.7893 21.0391 25.4142 21.4142C25.0391 21.7893 24.5304 22 24 22H2C1.46957 22 0.960859 21.7893 0.585786 21.4142C0.210714 21.0391 0 20.5304 0 20V2C0 1.46957 0.210714 0.960859 0.585786 0.585786C0.960859 0.210714 1.46957 0 2 0H24C24.5304 0 25.0391 0.210714 25.4142 0.585786C25.7893 0.960859 26 1.46957 26 2ZM24 20V2H2V20H24ZM13.9675 15.75C14.0338 16.0069 13.9953 16.2797 13.8605 16.5082C13.7257 16.7368 13.5057 16.9024 13.2488 16.9688C12.9918 17.0351 12.7191 16.9966 12.4905 16.8618C12.262 16.727 12.0963 16.5069 12.03 16.25C11.7013 14.9675 10.3975 14 8.99875 14C7.6 14 6.2975 14.9675 5.9675 16.25C5.9012 16.5069 5.73554 16.727 5.50698 16.8618C5.27842 16.9966 5.00568 17.0351 4.74875 16.9688C4.49182 16.9024 4.27176 16.7368 4.13696 16.5082C4.00217 16.2797 3.9637 16.0069 4.03 15.75C4.3545 14.5422 5.12157 13.5007 6.17875 12.8325C5.61696 12.274 5.23363 11.5614 5.07736 10.7848C4.92109 10.0082 4.99891 9.20273 5.30096 8.47044C5.60301 7.73815 6.11568 7.11202 6.774 6.67145C7.43231 6.23087 8.20661 5.99567 8.99875 5.99567C9.79089 5.99567 10.5652 6.23087 11.2235 6.67145C11.8818 7.11202 12.3945 7.73815 12.6965 8.47044C12.9986 9.20273 13.0764 10.0082 12.9201 10.7848C12.7639 11.5614 12.3805 12.274 11.8188 12.8325C12.8771 13.4997 13.6448 14.5416 13.9688 15.75H13.9675ZM9 12C9.39556 12 9.78224 11.8827 10.1111 11.6629C10.44 11.4432 10.6964 11.1308 10.8478 10.7654C10.9991 10.3999 11.0387 9.99778 10.9616 9.60982C10.8844 9.22186 10.6939 8.86549 10.4142 8.58579C10.1345 8.30608 9.77814 8.1156 9.39018 8.03843C9.00222 7.96126 8.60009 8.00087 8.23463 8.15224C7.86918 8.30362 7.55682 8.55996 7.33706 8.88886C7.1173 9.21776 7 9.60444 7 10C7 10.5304 7.21071 11.0391 7.58579 11.4142C7.96086 11.7893 8.46957 12 9 12Z" fill="white"/>
</svg>
