<svg width="25" height="26" viewBox="0 0 25 26" fill="none" xmlns="http://www.w3.org/2000/svg">
<path d="M7.39875 18.8C7.50385 18.879 7.62349 18.9365 7.75082 18.9692C7.87816 19.0019 8.0107 19.0091 8.14085 18.9906C8.271 18.972 8.39621 18.9279 8.50931 18.8609C8.62242 18.7939 8.7212 18.7052 8.8 18.6C9.40546 17.7927 10.1906 17.1375 11.0931 16.6862C11.9957 16.2349 12.9909 16 14 16C15.0091 16 16.0043 16.2349 16.9069 16.6862C17.8095 17.1375 18.5945 17.7927 19.2 18.6C19.2788 18.7051 19.3775 18.7936 19.4905 18.8605C19.6035 18.9274 19.7286 18.9714 19.8586 18.99C19.9886 19.0085 20.121 19.0013 20.2482 18.9687C20.3754 18.9361 20.4949 18.8788 20.6 18.8C20.7051 18.7212 20.7936 18.6225 20.8605 18.5095C20.9274 18.3965 20.9714 18.2714 20.99 18.1414C21.0085 18.0114 21.0013 17.879 20.9687 17.7518C20.9361 17.6246 20.8788 17.5051 20.8 17.4C19.9145 16.2128 18.7337 15.2781 17.375 14.6887C18.1196 14.0089 18.6413 13.1199 18.8716 12.1382C19.1019 11.1566 19.03 10.1283 18.6654 9.18828C18.3009 8.24823 17.6606 7.44037 16.8287 6.87072C15.9967 6.30106 15.012 5.99623 14.0037 5.99623C12.9955 5.99623 12.0108 6.30106 11.1788 6.87072C10.3469 7.44037 9.70665 8.24823 9.34207 9.18828C8.97749 10.1283 8.90563 11.1566 9.13592 12.1382C9.36621 13.1199 9.88789 14.0089 10.6325 14.6887C9.27105 15.277 8.08755 16.2118 7.2 17.4C7.04074 17.612 6.97221 17.8786 7.00948 18.1412C7.04675 18.4037 7.18677 18.6407 7.39875 18.8ZM11 11C11 10.4067 11.1759 9.82664 11.5056 9.33329C11.8352 8.83994 12.3038 8.45542 12.8519 8.22836C13.4001 8.0013 14.0033 7.94189 14.5853 8.05764C15.1672 8.1734 15.7018 8.45912 16.1213 8.87868C16.5409 9.29824 16.8266 9.83279 16.9424 10.4147C17.0581 10.9967 16.9987 11.5999 16.7716 12.1481C16.5446 12.6962 16.1601 13.1648 15.6667 13.4944C15.1734 13.8241 14.5933 14 14 14C13.2044 14 12.4413 13.6839 11.8787 13.1213C11.3161 12.5587 11 11.7956 11 11ZM23 0H5C4.46957 0 3.96086 0.210714 3.58579 0.585786C3.21071 0.960859 3 1.46957 3 2V5H1C0.734784 5 0.48043 5.10536 0.292893 5.29289C0.105357 5.48043 0 5.73478 0 6C0 6.26522 0.105357 6.51957 0.292893 6.70711C0.48043 6.89464 0.734784 7 1 7H3V12H1C0.734784 12 0.48043 12.1054 0.292893 12.2929C0.105357 12.4804 0 12.7348 0 13C0 13.2652 0.105357 13.5196 0.292893 13.7071C0.48043 13.8946 0.734784 14 1 14H3V19H1C0.734784 19 0.48043 19.1054 0.292893 19.2929C0.105357 19.4804 0 19.7348 0 20C0 20.2652 0.105357 20.5196 0.292893 20.7071C0.48043 20.8946 0.734784 21 1 21H3V24C3 24.5304 3.21071 25.0391 3.58579 25.4142C3.96086 25.7893 4.46957 26 5 26H23C23.5304 26 24.0391 25.7893 24.4142 25.4142C24.7893 25.0391 25 24.5304 25 24V2C25 1.46957 24.7893 0.960859 24.4142 0.585786C24.0391 0.210714 23.5304 0 23 0ZM23 24H5V2H23V24Z" fill="white"/>
</svg>
